<?xml version="1.0" encoding="utf-8"?>
<!-- Generator: Adobe Illustrator 23.0.3, SVG Export Plug-In . SVG Version: 6.00 Build 0)  -->
<svg version="1.1" id="icon-arrange-vertical-center"
	 xmlns="http://www.w3.org/2000/svg" xmlns:xlink="http://www.w3.org/1999/xlink" x="0px" y="0px" viewBox="0 0 9 14"
	 style="enable-background:new 0 0 9 14;" xml:space="preserve"
	 width="9"
	 height="14">
<style type="text/css">
	.st0{fill:#5E5E5E;}
</style>
<path class="st0" d="M8.5,5H5V0H4v5H0.5C0.2,5,0,5.2,0,5.4c0,0,0,0,0,0.1v3C0,8.8,0.2,9,0.4,9c0,0,0,0,0.1,0H4v5h1V9h3.5
	C8.8,9,9,8.8,9,8.6c0,0,0,0,0-0.1v-3C9,5.2,8.8,5,8.5,5C8.5,5,8.5,5,8.5,5z M8,8H1V6h7V8z"/>
</svg>
