<?xml version="1.0" encoding="utf-8"?>
<!-- Generator: Adobe Illustrator 23.0.3, SVG Export Plug-In . SVG Version: 6.00 Build 0)  -->
<svg version="1.1" id="stroke-end-round" xmlns="http://www.w3.org/2000/svg" xmlns:xlink="http://www.w3.org/1999/xlink" x="0px"
	 y="0px" viewBox="0 0 14 14" style="enable-background:new 0 0 14 14;" xml:space="preserve" width="14" height="14">
<style type="text/css">
	.st0{fill:#5E5E5E;}
</style>
<path class="st0" d="M5,3.5v7.1C5,10.8,5.2,11,5.5,11c0,0,0,0,0,0h3.1C8.8,11,9,10.8,9,10.5c0,0,0,0,0,0V3.4C9,3.2,8.8,3,8.5,3
	c0,0,0,0,0,0H5.4C5.2,3,5,3.2,5,3.5C5,3.5,5,3.5,5,3.5z M8,4v6H6V4H8z M3,14H2V0h1V14z M12,14h-1V0h1V14z"/>
</svg>
