<?xml version="1.0" encoding="utf-8"?>
<!-- Generator: Adobe Illustrator 23.0.3, SVG Export Plug-In . SVG Version: 6.00 Build 0)  -->
<svg version="1.1" id="icon-arrange-bottom" xmlns="http://www.w3.org/2000/svg" xmlns:xlink="http://www.w3.org/1999/xlink"
	 x="0px" y="0px" viewBox="0 0 14 12" style="enable-background:new 0 0 14 12;" xml:space="preserve"
	 width="14"
	 height="12">
<style type="text/css">
	.st0{fill:#5E5E5E;}
</style>
<path class="st0" d="M14,11v1H0v-1H14z M8,8V1H6v7H8 M9,8.5C9,8.8,8.8,9,8.6,9c0,0,0,0-0.1,0h-3C5.2,9,5,8.8,5,8.6c0,0,0,0,0-0.1v-8
	C5,0.2,5.2,0,5.4,0c0,0,0,0,0.1,0h3C8.8,0,9,0.2,9,0.4c0,0,0,0,0,0.1V8.5z"/>
</svg>
