<?xml version="1.0" encoding="utf-8"?>
<!-- Generator: Adobe Illustrator 23.0.3, SVG Export Plug-In . SVG Version: 6.00 Build 0)  -->
<svg version="1.1" id="icon-arrange-vertical-middle"
	 xmlns="http://www.w3.org/2000/svg" xmlns:xlink="http://www.w3.org/1999/xlink" x="0px" y="0px" viewBox="0 0 14 14"
	 style="enable-background:new 0 0 14 14;" xml:space="preserve"
	 width="14" height="14">
<style type="text/css">
	.st0{fill:#5E5E5E;}
</style>
<path class="st0" d="M9,10.5V7h5V6H9V2.5C9,2.2,8.8,2,8.6,2c0,0,0,0-0.1,0h-3C5.2,2,5,2.2,5,2.4c0,0,0,0,0,0.1V6H0v1h5v3.5
	C5,10.8,5.2,11,5.4,11c0,0,0,0,0.1,0h3C8.8,11,9,10.8,9,10.5L9,10.5z M6,10V3h2v7H6z"/>
</svg>
