<?xml version="1.0" encoding="utf-8"?>
<!-- Generator: Adobe Illustrator 23.0.3, SVG Export Plug-In . SVG Version: 6.00 Build 0)  -->
<svg version="1.1" id="stroke-end-round" xmlns="http://www.w3.org/2000/svg" xmlns:xlink="http://www.w3.org/1999/xlink" x="0px"
	 y="0px" viewBox="0 0 14 14" style="enable-background:new 0 0 14 14;" xml:space="preserve" width="14" height="14">
<style type="text/css">
	.st0{fill:#5E5E5E;}
</style>
<path class="st0" d="M3.5,9h7.1C10.8,9,11,8.8,11,8.5c0,0,0,0,0,0V5.4C11,5.2,10.8,5,10.5,5c0,0,0,0,0,0H3.4C3.2,5,3,5.2,3,5.5
	c0,0,0,0,0,0v3.1C3,8.8,3.2,9,3.5,9C3.5,9,3.5,9,3.5,9z M4,6h6v2H4V6z M14,11v1H0v-1H14z M14,2v1H0V2H14z"/>
</svg>
