<?xml version="1.0" encoding="utf-8"?>
<!-- Generator: Adobe Illustrator 23.0.3, SVG Export Plug-In . SVG Version: 6.00 Build 0)  -->
<svg version="1.1" id="icon-text-element" xmlns="http://www.w3.org/2000/svg" xmlns:xlink="http://www.w3.org/1999/xlink" x="0px"
	 y="0px" viewBox="0 0 14 14" style="enable-background:new 0 0 14 14;" xml:space="preserve">
<style type="text/css">
	.st0{fill:#5E5E5E;}
</style>
<path class="st0" d="M7.1,11.3l-0.8-2H2l-0.8,1.9H0l3.5-8.7h1.3l3.5,8.7L7.1,11.3z M4.2,3.7L2.3,8.4H6L4.2,3.7z M13,11.3v-0.7
	c-0.5,0.6-1.3,0.9-2.1,0.9c-1.2,0-2.1-0.9-2.2-2c0,0,0,0,0-0.1c0-1.1,0.8-2,1.9-2.1c0.1,0,0.2,0,0.3,0c0.8,0,1.5,0.3,2.1,0.8V7
	c0-0.8-0.7-1.3-1.6-1.3C10.7,5.7,10,6,9.5,6.6L9,5.9c0.7-0.7,1.6-1,2.5-1C12.9,4.9,14,5.5,14,7v4.3H13z M13,9.9V8.7
	C12.6,8.2,12,8,11.3,8c-0.8-0.1-1.5,0.4-1.6,1.2s0.4,1.5,1.2,1.6c0.1,0,0.3,0,0.4,0C12,10.8,12.6,10.5,13,9.9z"/>
</svg>
