<svg xmlns="http://www.w3.org/2000/svg" width="10" height="11.667" viewBox="0 0 10 11.667">
  <path id="colors-dropper" d="M4.333,7.5H3.083l1.75-2.25-.667-.667L.583,8.833C0,9.5.5,9.917.083,10.75A.63.63,0,0,0,0,11.083a.557.557,0,0,0,.5.583.5.5,0,0,0,.333-.083c.75-.667,1.167-.083,1.75-.833L6.167,6.5,5.5,5.917Zm3.75-3.167a1.014,1.014,0,0,0,0,1.333l-.583.75L4.167,3.167l.583-.75A.839.839,0,0,0,6,2.333L7.583.5A1.467,1.467,0,0,1,8.667,0,1.412,1.412,0,0,1,10,1.5a2.369,2.369,0,0,1-.333,1Z" fill="#5e5e5e"/>
</svg>
