<?xml version="1.0" encoding="utf-8"?>
<!-- Generator: Adobe Illustrator 23.0.3, SVG Export Plug-In . SVG Version: 6.00 Build 0)  -->
<svg version="1.1" id="icon-layers" xmlns="http://www.w3.org/2000/svg" xmlns:xlink="http://www.w3.org/1999/xlink" x="0px"
	 y="0px" viewBox="0 0 14 14" style="enable-background:new 0 0 14 14;" xml:space="preserve" width="14" height="14">
<style type="text/css">
	.st0{fill:#5E5E5E;}
</style>
<path class="st0" d="M7,8C6.9,8,6.8,8,6.8,7.9L0.4,4.4C0.2,4.3,0.1,4,0.2,3.8c0-0.1,0.1-0.2,0.2-0.2l6.4-3.5C6.9,0,7.1,0,7.2,0.1
	l6.4,3.5c0.2,0.1,0.3,0.4,0.2,0.7c0,0.1-0.1,0.2-0.2,0.2L7.2,7.9C7.2,8,7.1,8,7,8z M1.7,4L7,6.9L12.3,4L7,1.1L1.7,4z M7.2,10.9
	l6.4-3.5c0.2-0.1,0.3-0.4,0.2-0.7l0,0c-0.1-0.2-0.4-0.3-0.7-0.2L7,9.9L0.9,6.6c-0.2-0.1-0.5,0-0.7,0.2C0.1,7,0.1,7.3,0.4,7.4l0,0
	l6.4,3.5C6.9,11,7.1,11,7.2,10.9z M7.2,13.9l6.4-3.5c0.2-0.1,0.3-0.4,0.2-0.7l0,0c-0.1-0.2-0.4-0.3-0.7-0.2L7,12.9L0.9,9.6
	c-0.2-0.1-0.5,0-0.7,0.2c-0.1,0.2-0.1,0.5,0.2,0.7l0,0L6.8,14C6.9,14,7.1,14,7.2,13.9z"/>
</svg>
