<?xml version="1.0" encoding="utf-8"?>
<!-- Generator: Adobe Illustrator 23.0.3, SVG Export Plug-In . SVG Version: 6.00 Build 0)  -->
<svg version="1.1" id="Layer_1" xmlns="http://www.w3.org/2000/svg" xmlns:xlink="http://www.w3.org/1999/xlink" x="0px" y="0px"
	 viewBox="0 0 14 14" style="enable-background:new 0 0 14 14;" xml:space="preserve" width="14" height="14">
<style type="text/css">
	.st0{fill:#B3B3B3;}
</style>
<path id="Union_3" class="st0" d="M0,7c0-3.9,3.1-7,7-7c3.9,0,7,3.1,7,7c0,3.9-3.1,7-7,7C3.1,14,0,10.9,0,7z M1,7c0,3.3,2.7,6,6,6
	c3.3,0,6-2.7,6-6c0-3.3-2.7-6-6-6C3.7,1,1,3.7,1,7z M6,10V9h2v1H6z M5,8V7h4v1H5z M4,6V5h6v1H4z"/>
</svg>
