<?xml version="1.0" encoding="utf-8"?>
<!-- Generator: Adobe Illustrator 23.0.3, SVG Export Plug-In . SVG Version: 6.00 Build 0)  -->
<svg version="1.1" xmlns="http://www.w3.org/2000/svg" xmlns:xlink="http://www.w3.org/1999/xlink" x="0px" y="0px"
	 viewBox="0 0 14 10" style="enable-background:new 0 0 14 10;" xml:space="preserve">
<style type="text/css">
	.st0{display:none;}
	.st1{display:inline;fill:#5E5E5E;}
	.st2{fill:#006CFF;}
</style>
<g id="icon-folder-closed" class="st0">
	<path class="st1" d="M12.6,10H1.4C0.6,10,0,9.4,0,8.6V2.8C0,2,0.6,1.4,1.4,1.4h0.7L2.8,0H7l0.7,1.4h5C13.4,1.4,14,2,14,2.8v5.8
		C14,9.4,13.4,10,12.6,10z"/>
</g>
<g id="Layer_2">
	<path class="st2" d="M12,9H2C1.4,9,1,8.6,1,8V2c0-0.6,0.4-1,1-1h10c0.6,0,1,0.4,1,1v6C13,8.6,12.6,9,12,9z"/>
	<rect x="3" class="st2" width="5" height="1"/>
</g>
</svg>
