<?xml version="1.0" encoding="utf-8"?>
<!-- Generator: Adobe Illustrator 23.0.3, SVG Export Plug-In . SVG Version: 6.00 Build 0)  -->
<svg version="1.1" id="icon-settings-geneal" xmlns="http://www.w3.org/2000/svg" xmlns:xlink="http://www.w3.org/1999/xlink"
	 x="0px" y="0px" viewBox="0 0 14 14" style="enable-background:new 0 0 14 14;" xml:space="preserve">
<style type="text/css">
	.st0{fill:#5E5E5E;}
</style>
<path class="st0" d="M14,7.9V6.1l-2.1-0.9c0-0.2-0.1-0.3-0.2-0.5l0.8-2.1l-1.2-1.2L9.2,2.3C9.1,2.2,8.9,2.1,8.8,2.1L7.9,0H6.1
	L5.2,2.1C5,2.1,4.9,2.2,4.7,2.3l-2-0.9L1.4,2.7l0.8,2.1C2.2,5,2.1,5.1,2,5.3L0,6.1v1.8l2.1,0.9c0,0.2,0.1,0.4,0.2,0.5l-0.8,2.1
	l1.2,1.2l2.1-0.8C5,11.9,5.1,11.9,5.3,12l0.8,2h1.8l0.9-2.1c0.2,0,0.4-0.1,0.5-0.2l2.1,0.8l1.2-1.2l-0.9-2.1
	c0.1-0.2,0.1-0.3,0.2-0.5L14,7.9z M7,9.6C5.6,9.6,4.4,8.4,4.4,7S5.6,4.4,7,4.4S9.6,5.6,9.6,7S8.4,9.6,7,9.6z"/>
</svg>
