<?xml version="1.0" encoding="utf-8"?>
<!-- Generator: Adobe Illustrator 23.0.3, SVG Export Plug-In . SVG Version: 6.00 Build 0)  -->
<svg version="1.1" id="icon-layout-medium-tile" xmlns="http://www.w3.org/2000/svg" xmlns:xlink="http://www.w3.org/1999/xlink"
	 x="0px" y="0px" viewBox="0 0 14 14" style="enable-background:new 0 0 14 14;" xml:space="preserve" width="14" height="14">
<style type="text/css">
	.st0{fill:#5E5E5E;}
</style>
<g>
	<path class="st0" d="M5.2,1.8v3.3H1.8V1.8H5.2 M6,1H1v5h5V1L6,1z"/>
</g>
<g>
	<path class="st0" d="M12.2,1.8v3.3H8.8V1.8H12.2 M13,1H8v5h5V1L13,1z"/>
</g>
<g>
	<path class="st0" d="M5.2,8.8v3.3H1.8V8.8H5.2 M6,8H1v5h5V8L6,8z"/>
</g>
<g>
	<path class="st0" d="M12.2,8.8v3.3H8.8V8.8H12.2 M13,8H8v5h5V8L13,8z"/>
</g>
</svg>
