<?xml version="1.0" encoding="utf-8"?>
<!-- Generator: Adobe Illustrator 23.0.4, SVG Export Plug-In . SVG Version: 6.00 Build 0)  -->
<svg version="1.1" id="icon-action-break" xmlns="http://www.w3.org/2000/svg" xmlns:xlink="http://www.w3.org/1999/xlink" x="0px"
	 y="0px" viewBox="0 0 13 14" style="enable-background:new 0 0 13 14;" xml:space="preserve">
<style type="text/css">
	.st0{fill:#5E5E5E;}
</style>
<path class="st0" d="M4.7,13l1.4-1.3l-0.6-0.6l-1.4,1.3L4.7,13z"/>
<path class="st0" d="M8.3,13l0.6-0.6l-1.4-1.3l-0.6,0.6L8.3,13z"/>
<path class="st0" d="M12.1,5.6v2.8H7.4v0.9H13V4.7H7.4v0.9H12.1z"/>
<path class="st0" d="M0,8.4v0.9h5.6V8.4H0.9V5.6h4.6V4.7H0v0.9V8.4z"/>
<path class="st0" d="M7.5,2.9l1.4-1.3L8.3,1L6.9,2.3L7.5,2.9z"/>
<path class="st0" d="M4.7,1L4.1,1.6l1.4,1.3l0.6-0.7L4.7,1z"/>
<path class="st0" d="M4.6,7.5V6.5h3.7v0.9H4.6z"/>
</svg>
