<svg id="Group_252" data-name="Group 252" xmlns="http://www.w3.org/2000/svg" width="14" height="14" viewBox="0 0 14 14">
  <circle id="Ellipse_3" data-name="Ellipse 3" cx="4" cy="4" r="4" transform="translate(0 6)" fill="#5e5e5e"/>
  <path id="Path_194" data-name="Path 194" d="M10,6a3.979,3.979,0,0,0-2.265.707,4.981,4.981,0,0,1,.582.812,3,3,0,1,1,0,4.962,5.033,5.033,0,0,1-.582.813A4,4,0,1,0,10,6Z" fill="#5e5e5e"/>
  <path id="Path_195" data-name="Path 195" d="M4,5c.065,0,.125.014.189.016A2.95,2.95,0,0,1,6.168,1.132.493.493,0,0,0,6,1.5a.5.5,0,1,0,.667-.466A2.824,2.824,0,0,1,7,1a2.981,2.981,0,0,1,1.1.215A.492.492,0,0,0,8,1.5a.5.5,0,0,0,.938.229,2.987,2.987,0,0,1,.93,1.439A.493.493,0,0,0,9.5,3a.5.5,0,1,0,.466.667A2.824,2.824,0,0,1,10,4a2.984,2.984,0,0,1-.189,1.016C9.875,5.014,9.935,5,10,5a4.983,4.983,0,0,1,.833.084A3.966,3.966,0,0,0,11,4,3.984,3.984,0,0,0,4.34,1.032a.491.491,0,0,0-.308.308A3.969,3.969,0,0,0,3,4a3.966,3.966,0,0,0,.167,1.084A4.983,4.983,0,0,1,4,5Z" fill="#5e5e5e"/>
  <circle id="Ellipse_4" data-name="Ellipse 4" cx="0.5" cy="0.5" r="0.5" transform="translate(5 3)" fill="#5e5e5e"/>
  <circle id="Ellipse_5" data-name="Ellipse 5" cx="0.5" cy="0.5" r="0.5" transform="translate(7 3)" fill="#5e5e5e"/>
  <circle id="Ellipse_6" data-name="Ellipse 6" cx="0.5" cy="0.5" r="0.5" transform="translate(6 5)" fill="#5e5e5e"/>
  <circle id="Ellipse_7" data-name="Ellipse 7" cx="0.5" cy="0.5" r="0.5" transform="translate(8 5)" fill="#5e5e5e"/>
  <circle id="Ellipse_8" data-name="Ellipse 8" cx="0.5" cy="0.5" r="0.5" transform="translate(4 5)" fill="#5e5e5e"/>
</svg>
