<svg xmlns="http://www.w3.org/2000/svg" width="12" height="12" viewBox="0 0 12 12">
  <path id="lupa_2_" d="M11.964,11.218,8.9,8.276a4.952,4.952,0,0,0-.278-6.8A4.717,4.717,0,0,0,5.1,0,5.07,5.07,0,0,0,1.486,1.471a5.021,5.021,0,0,0,0,7.08,5.123,5.123,0,0,0,6.769.368l2.967,2.943a.451.451,0,0,0,.649,0A.577.577,0,0,0,11.964,11.218ZM2.135,7.908A4.235,4.235,0,0,1,.929,4.966,4.018,4.018,0,0,1,2.135,2.115,4.486,4.486,0,0,1,5.1.92a4.486,4.486,0,0,1,2.967,1.2A4.186,4.186,0,0,1,9.275,4.966,4.018,4.018,0,0,1,8.069,7.816,4.308,4.308,0,0,1,5.1,9.011,3.992,3.992,0,0,1,2.135,7.908Z" transform="translate(-0.025)" fill="#5e5e5e"/>
</svg>
