<?xml version="1.0" encoding="utf-8"?>
<svg version="1.1" id="icon-arrange-right" xmlns="http://www.w3.org/2000/svg" xmlns:xlink="http://www.w3.org/1999/xlink" x="0px"
	 y="0px" viewBox="0 0 13 14" style="enable-background:new 0 0 13 14;" xml:space="preserve"
	 width="13"
	 height="14">
<style type="text/css">
	.st0{fill:#5E5E5E;}
</style>
<path class="st0" d="M13,4V3h-3V0H9v3H7V0H6v3H4V0H3v3H0v1h3v2H0v1h3v2H0v1h3v3h1v-3h2v3h1v-3h2v3h1v-3h3V9h-3V7h3V6h-3V4H13z M4,4
	h2v2H4V4z M4,9V7h2v2H4z M9,9H7V7h2V9z M9,6H7V4h2V6z"/>
</svg>
