<svg xmlns="http://www.w3.org/2000/svg" width="14" height="11" viewBox="0 0 14 11">
  <g id="Group_325" data-name="Group 325" transform="translate(-15 -68)">
    <g id="Group_321" data-name="Group 321" transform="translate(14 41)">
      <path id="Path_173" data-name="Path 173" d="M0,38H14V27H0ZM1,28H13v9H1Zm10,2H3v1h8Z" transform="translate(1)" fill="#5e5e5e"/>
      <path id="Path_174" data-name="Path 174" d="M0,38H14V27H0ZM1,28H13v9H1Zm10,2H3v1h8Z" transform="translate(1)" fill="#5e5e5e"/>
      <path id="Path_175" data-name="Path 175" d="M0,38H14V27H0ZM1,28H13v9H1Zm10,2H3v1h8Z" transform="translate(1)" fill="#5e5e5e"/>
      <path id="Path_176" data-name="Path 176" d="M0,38H14V27H0ZM1,28H13v9H1Zm10,2H3v1h8Z" transform="translate(1)" fill="#5e5e5e"/>
      <rect id="Rectangle_218" data-name="Rectangle 218" width="8" height="1" transform="translate(4 32)" fill="#5e5e5e"/>
      <rect id="Rectangle_219" data-name="Rectangle 219" width="8" height="1" transform="translate(4 34)" fill="#5e5e5e"/>
    </g>
  </g>
</svg>
