<?xml version="1.0" encoding="utf-8"?>
<!-- Generator: Adobe Illustrator 23.0.3, SVG Export Plug-In . SVG Version: 6.00 Build 0)  -->
<svg version="1.1" id="icon-variable" xmlns="http://www.w3.org/2000/svg" xmlns:xlink="http://www.w3.org/1999/xlink" x="0px"
	 y="0px" viewBox="0 0 15 14" style="enable-background:new 0 0 15 14;" xml:space="preserve" width="15" height="14">
<style type="text/css">
	.st0{fill:#5E5E5E;}
</style>
<path class="st0" d="M9.4,7.3C9.2,7.1,8.9,6.9,8.6,6.8L8,6.6V3.7c0.2,0,0.4,0.1,0.6,0.2C8.8,4,9,4.2,9.2,4.4L10,3.7
	C9.7,3.4,9.4,3.1,9,3C8.7,2.9,8.3,2.8,8,2.8V2H7v0.8C6.8,2.8,6.5,2.9,6.3,3C6,3.1,5.8,3.3,5.6,3.5C5.4,3.7,5.2,3.9,5.1,4.2
	C5,4.4,4.9,4.7,4.9,5c0,0.3,0.1,0.6,0.2,0.9c0.1,0.3,0.3,0.5,0.5,0.7C5.8,6.8,6,6.9,6.3,7C6.5,7.1,6.8,7.2,7,7.3v3
	c-0.3,0-0.5-0.2-0.8-0.3C5.9,9.9,5.7,9.6,5.5,9.4l-0.8,0.7c0.3,0.4,0.7,0.7,1.1,0.8c0.4,0.1,0.8,0.2,1.2,0.3V12h1v-0.9
	c0.2,0,0.4-0.1,0.6-0.1c0.3-0.1,0.5-0.3,0.8-0.5c0.2-0.2,0.4-0.4,0.5-0.7c0.1-0.3,0.2-0.6,0.2-0.9c0-0.3-0.1-0.6-0.2-0.9
	C9.8,7.7,9.6,7.5,9.4,7.3z M7,6.3L6.7,6.2C6.5,6.1,6.4,6,6.3,5.9C6.2,5.8,6.1,5.7,6,5.5C5.9,5.4,5.9,5.2,5.9,5
	c0-0.3,0.1-0.7,0.3-0.9C6.5,3.9,6.7,3.8,7,3.7V6.3z M8.7,9.8C8.5,10,8.3,10.1,8,10.2V7.6l0.2,0.1C8.4,7.8,8.5,7.9,8.7,8
	C8.8,8.1,8.9,8.2,9,8.4c0.1,0.2,0.1,0.4,0.1,0.5C9.1,9.3,9,9.6,8.7,9.8z M2.8,1h0.8v0.9H2.8C2.3,2,2,2.4,2,2.9c0,0,0,0,0,0v3
	C2.1,6.4,1.8,6.8,1.4,7C1.8,7.2,2.1,7.7,2,8.1v2.9c-0.1,0.5,0.3,0.9,0.8,1c0,0,0,0,0,0h0.8V13H2.8c-1,0-1.8-0.8-1.8-1.8
	c0,0,0,0,0-0.1V8.3c0-0.5-0.2-0.9-0.6-0.9H0V6.6h0.3C0.8,6.6,1,6.2,1,5.7V2.9C1,1.9,1.7,1,2.8,1C2.8,1,2.8,1,2.8,1z M15,6.6v0.8
	h-0.4c-0.4,0-0.7,0.4-0.7,0.9v2.8c0,1-0.7,1.9-1.7,1.9c0,0,0,0-0.1,0h-0.8v-0.9h0.8c0.5,0,0.9-0.5,0.8-1c0,0,0,0,0,0v-3
	c0-0.4,0.2-0.9,0.6-1.1c-0.4-0.2-0.7-0.7-0.6-1.1v-3c0.1-0.5-0.3-0.9-0.8-1c0,0,0,0,0,0h-0.8V1h0.8c1,0,1.8,0.8,1.8,1.8
	c0,0,0,0,0,0.1v2.8c0,0.5,0.2,0.9,0.7,0.9H15z"/>
</svg>
