<?xml version="1.0" encoding="utf-8"?>
<!-- Generator: Adobe Illustrator 23.0.3, SVG Export Plug-In . SVG Version: 6.00 Build 0)  -->
<svg version="1.1" id="Layer_1" xmlns="http://www.w3.org/2000/svg" xmlns:xlink="http://www.w3.org/1999/xlink" x="0px" y="0px"
	 viewBox="0 0 14 9" style="enable-background:new 0 0 14 9;" xml:space="preserve">
<style type="text/css">
	.st0{fill:#5E5E5E;}
</style>
<title>Asset 11</title>
<g>
	<g id="Layer_1-2">
		<path class="st0" d="M9,4.5c0,1.1-0.9,2-2,2s-2-0.9-2-2s0.9-2,2-2S9,3.4,9,4.5z M7,1C4.9,1,2.8,2.2,1.2,4.5C2.8,6.8,4.9,8,7,8
			s4.2-1.2,5.8-3.5C11.2,2.2,9.1,1,7,1 M7,0c2.5,0,5.1,1.5,7,4.5C12.1,7.5,9.5,9,7,9S1.9,7.5,0,4.5C1.9,1.5,4.5,0,7,0z"/>
	</g>
</g>
</svg>
