<?xml version="1.0" encoding="utf-8"?>
<!-- Generator: Adobe Illustrator 23.0.3, SVG Export Plug-In . SVG Version: 6.00 Build 0)  -->
<svg version="1.1" id="Layer_1" xmlns="http://www.w3.org/2000/svg" xmlns:xlink="http://www.w3.org/1999/xlink" x="0px" y="0px"
	 viewBox="0 0 14 6.1" style="enable-background:new 0 0 14 6.1;" xml:space="preserve">
<style type="text/css">
	.st0{fill:#5E5E5E;}
</style>
<title>Asset 10</title>
<g>
	<g id="Layer_1-2">
		<path class="st0" d="M14,0h-1.2c-0.3,0.4-0.6,0.8-1,1.1c-0.2,0.2-0.5,0.5-0.7,0.7C10.5,2.3,9.9,2.7,9.3,3C9,3.1,8.6,3.2,8.3,3.3
			C7.9,3.4,7.4,3.5,7,3.5c-0.4,0-0.9-0.1-1.3-0.2C5.4,3.2,5,3.1,4.7,3C4.1,2.7,3.4,2.3,2.9,1.8C2.6,1.6,2.4,1.4,2.2,1.2
			C1.8,0.8,1.5,0.4,1.2,0H0c0.4,0.7,1,1.3,1.5,1.9L0.1,3.7l0.8,0.6l1.4-1.7c0.7,0.6,1.4,1,2.2,1.4L4,5.9l1,0.2l0.5-1.8
			C6,4.4,6.5,4.5,7,4.5c0.5,0,1.1-0.1,1.6-0.2L9,6.1l1-0.2L9.5,4c0.8-0.3,1.6-0.8,2.2-1.4l1.4,1.7l0.8-0.6l-1.4-1.8
			C13,1.3,13.6,0.7,14,0z"/>
	</g>
</g>
</svg>
